<svg width="14" height="11" viewBox="0 0 99 55" xmlns="http://www.w3.org/2000/svg">
<path d="M72.7273 0.00131631C71.9479 0.0245397 71.2082 0.350277 70.6648 0.909519L24.7859 46.7884L5.90699 27.9095C5.63056 27.6216 5.29945 27.3917 4.93306 27.2334C4.56668 27.075 4.17238 26.9914 3.77326 26.9873C3.37413 26.9832 2.97821 27.0589 2.60868 27.2097C2.23915 27.3606 1.90344 27.5837 1.6212 27.8659C1.33896 28.1482 1.11588 28.4839 0.965011 28.8534C0.814144 29.2229 0.738526 29.6188 0.742587 30.018C0.746648 30.4171 0.830305 30.8114 0.98866 31.1778C1.14701 31.5442 1.37688 31.8753 1.6648 32.1517L22.6648 53.1517C23.2274 53.7141 23.9904 54.03 24.7859 54.03C25.5814 54.03 26.3444 53.7141 26.907 53.1517L74.907 5.15171C75.3405 4.73032 75.6366 4.1878 75.7565 3.59524C75.8763 3.00268 75.8144 2.38773 75.5788 1.83097C75.3432 1.27421 74.9448 0.801623 74.436 0.475136C73.9272 0.148649 73.3316 -0.0165048 72.7273 0.00131631Z" />
<path d="M94.9415 0.00130429C94.1621 0.0245277 93.4223 0.350265 92.879 0.909507L47.0001 46.7884L28.1212 27.9095C27.8447 27.6216 27.5136 27.3917 27.1472 27.2334C26.7809 27.075 26.3866 26.9914 25.9874 26.9873C25.5883 26.9832 25.1924 27.0588 24.8229 27.2097C24.4533 27.3606 24.1176 27.5837 23.8354 27.8659C23.5531 28.1481 23.3301 28.4839 23.1792 28.8534C23.0283 29.2229 22.9527 29.6188 22.9568 30.018C22.9608 30.4171 23.0445 30.8114 23.2028 31.1778C23.3612 31.5442 23.5911 31.8753 23.879 32.1517L44.879 53.1517C45.4416 53.7141 46.2046 54.03 47.0001 54.03C47.7956 54.03 48.5585 53.7141 49.1212 53.1517L97.1211 5.15169C97.5547 4.73031 97.8507 4.18779 97.9706 3.59523C98.0905 3.00267 98.0286 2.38771 97.793 1.83096C97.5573 1.2742 97.159 0.801611 96.6502 0.475124C96.1414 0.148637 95.5458 -0.0165168 94.9415 0.00130429Z" />
</svg>
