<svg width="81" height="79" viewBox="0 0 81 79" fill="none" xmlns="http://www.w3.org/2000/svg">
<path fill-rule="evenodd" clip-rule="evenodd" d="M64.0705 29C64.0705 45.0163 49.7436 58 32.0705 58C27.1956 58 22.5753 57.0121 18.4401 55.2452C12.2031 60.0645 -4.33958 60.2051 1.07064 57.5C4.76877 55.6509 7.51716 51.9024 9.04143 49.1356C3.48706 43.9194 0.0705067 36.8213 0.0705067 29C0.0705067 12.9837 14.3974 0 32.0705 0C49.7436 0 64.0705 12.9837 64.0705 29ZM20.0002 19C17.7911 19 16.0002 20.7909 16.0002 23C16.0002 25.2091 17.7911 27 20.0002 27H43.0002C45.2093 27 47.0002 25.2091 47.0002 23C47.0002 20.7909 45.2093 19 43.0002 19H20.0002ZM16.0002 35C16.0002 32.7909 17.7911 31 20.0002 31H32.0002C34.2093 31 36.0002 32.7909 36.0002 35C36.0002 37.2091 34.2093 39 32.0002 39H20.0002C17.7911 39 16.0002 37.2091 16.0002 35ZM69.187 40C66.8684 53.9499 53.5851 64.6442 37.5456 64.6442C35.6543 64.6442 33.8013 64.4956 32.0001 64.2104C35.5109 72.0507 44.6965 77.6442 55.4753 77.6442C58.1294 77.6442 60.6869 77.3051 63.0869 76.6768C69.4445 79.3866 80.9825 77.5 79 77.5C77.6454 77.5 74.5321 75.0533 71.8354 72.6456C77.1276 68.8867 80.4753 63.3361 80.4753 57.1442C80.4753 49.9742 75.9862 43.6639 69.187 40Z" fill="#3F90EE"/>
</svg>
